<svg id="Layer_1" enable-background="new 0 0 512 512" height="512" viewBox="0 0 512 512" width="512" xmlns="http://www.w3.org/2000/svg"><g id="XMLID_1663_"><g id="XMLID_1503_"><path style="fill:#D1AC34;" id="XMLID_1845_" d="m345.773 207.876c24.193 0 43.876-19.683 43.876-43.876s-19.683-43.876-43.876-43.876-43.876 19.683-43.876 43.876 19.683 43.876 43.876 43.876zm0-67.752c13.165 0 23.876 10.711 23.876 23.876s-10.711 23.876-23.876 23.876-23.876-10.711-23.876-23.876 10.711-23.876 23.876-23.876z"/><path style="fill:#D1AC34;" id="XMLID_2045_" d="m167.6 133c0-19.079-15.521-34.6-34.6-34.6s-34.6 15.521-34.6 34.6 15.521 34.6 34.6 34.6 34.6-15.521 34.6-34.6zm-49.2 0c0-8.05 6.55-14.6 14.6-14.6s14.6 6.55 14.6 14.6-6.55 14.6-14.6 14.6-14.6-6.55-14.6-14.6z"/><path style="fill:#D1AC34;" id="XMLID_2046_" d="m133 69.2c2.63 0 5.21-1.07 7.069-2.93 1.86-1.86 2.931-4.44 2.931-7.07s-1.07-5.21-2.931-7.07c-1.859-1.86-4.439-2.93-7.069-2.93s-5.21 1.07-7.07 2.93-2.93 4.44-2.93 7.07 1.069 5.21 2.93 7.07c1.86 1.86 4.44 2.93 7.07 2.93z"/><path style="fill:#D1AC34;" id="XMLID_2050_" d="m140.069 213.87c1.86-1.86 2.931-4.44 2.931-7.07s-1.07-5.21-2.931-7.07c-1.859-1.86-4.439-2.93-7.069-2.93s-5.21 1.07-7.07 2.93-2.93 4.44-2.93 7.07 1.069 5.21 2.93 7.07c1.86 1.86 4.44 2.93 7.07 2.93s5.21-1.07 7.069-2.93z"/><path style="fill:#D1AC34;" id="XMLID_2052_" d="m69.09 159.9c-2.64 0-5.21 1.07-7.07 2.93-1.87 1.86-2.93 4.44-2.93 7.07s1.06 5.21 2.93 7.07c1.86 1.86 4.431 2.93 7.07 2.93 2.63 0 5.21-1.07 7.07-2.93 1.859-1.86 2.93-4.44 2.93-7.07s-1.07-5.21-2.93-7.07-4.44-2.93-7.07-2.93z"/><path style="fill:#D1AC34;" id="XMLID_2054_" d="m196.91 106.1c2.63 0 5.21-1.07 7.069-2.93 1.87-1.86 2.931-4.44 2.931-7.07s-1.061-5.21-2.931-7.07c-1.859-1.86-4.43-2.93-7.069-2.93-2.631 0-5.21 1.07-7.07 2.93s-2.93 4.43-2.93 7.07c0 2.63 1.069 5.21 2.93 7.07s4.439 2.93 7.07 2.93z"/><path style="fill:#D1AC34;" id="XMLID_2056_" d="m196.91 179.9c2.63 0 5.21-1.07 7.069-2.93 1.87-1.86 2.931-4.44 2.931-7.07s-1.061-5.21-2.931-7.07c-1.859-1.86-4.43-2.93-7.069-2.93-2.631 0-5.21 1.07-7.07 2.93s-2.93 4.43-2.93 7.07c0 2.63 1.069 5.21 2.93 7.07 1.86 1.86 4.439 2.93 7.07 2.93z"/><path style="fill:#D1AC34;" id="XMLID_2057_" d="m69.09 86.1c-2.64 0-5.21 1.07-7.07 2.93-1.87 1.86-2.93 4.44-2.93 7.07s1.06 5.21 2.93 7.07c1.86 1.86 4.44 2.93 7.07 2.93s5.21-1.07 7.07-2.93c1.859-1.86 2.93-4.44 2.93-7.07s-1.07-5.21-2.93-7.07-4.44-2.93-7.07-2.93z"/><path style="fill:#D1AC34;" id="XMLID_2064_" d="m507.459 264.288c-2.833-1.845-6.406-2.135-9.499-.77l-81.96 36.194v-43.712c0-5.408-4.295-9.801-9.658-9.983 25.117-18.597 41.432-48.436 41.432-82.017 0-56.243-45.757-102-102-102-34.083 0-64.312 16.806-82.844 42.564-13.059-59.718-66.351-104.564-129.93-104.564-73.337 0-133 59.664-133 133 0 53.801 32.112 100.242 78.175 121.167-.11.595-.175 1.206-.175 1.833v67.01l-63.96-28.245c-3.096-1.365-6.668-1.077-9.499.77-2.833 1.845-4.541 4.997-4.541 8.378v150.174c0 3.381 1.708 6.533 4.541 8.378 1.649 1.075 3.55 1.622 5.46 1.622 1.37 0 2.746-.282 4.039-.852l63.96-28.245v67.01c0 5.523 4.478 10 10 10h318c5.522 0 10-4.477 10-10v-43.712l81.96 36.194c1.293.57 2.668.852 4.039.852 1.91 0 3.812-.547 5.46-1.622 2.833-1.846 4.541-4.998 4.541-8.378v-212.667c0-3.381-1.708-6.533-4.541-8.379zm-161.686-182.288c45.215 0 82 36.785 82 82s-36.785 82-82 82-82-36.785-82-82 36.786-82 82-82zm-60.591 164h-82.12c19.273-11.993 35.267-28.773 46.31-48.669 6.801 19.618 19.431 36.534 35.81 48.669zm-265.182-113c0-62.309 50.691-113 113-113s113 50.691 113 113-50.691 113-113 113-113-50.691-113-113zm0 305.739v-119.478l58 25.613v68.253zm376 53.261h-298v-226h298zm96-22.014-76-33.562v-114.848l76-33.562z"/><path style="fill:#D1AC34;" id="XMLID_2079_" d="m339 300h-46.999c-5.522 0-10 4.477-10 10s4.478 10 10 10h36.999v118h-164v-118h36.996c5.522 0 10-4.477 10-10s-4.478-10-10-10h-46.996c-5.522 0-10 4.477-10 10v138c0 5.523 4.478 10 10 10h184c5.522 0 10-4.477 10-10v-138c0-5.523-4.478-10-10-10z"/><path style="fill:#D1AC34;" id="XMLID_2080_" d="m247 320c2.63 0 5.21-1.07 7.069-2.93 1.86-1.86 2.931-4.44 2.931-7.07s-1.07-5.21-2.931-7.07c-1.859-1.86-4.439-2.93-7.069-2.93s-5.21 1.07-7.07 2.93-2.93 4.44-2.93 7.07c0 2.64 1.069 5.21 2.93 7.07s4.44 2.93 7.07 2.93z"/></g></g></svg>